<?xml version="1.0" encoding="UTF-8" standalone="no"?>
<svg width="122px" height="122px" viewBox="0 0 122 122" version="1.1" xmlns="http://www.w3.org/2000/svg" xmlns:xlink="http://www.w3.org/1999/xlink" xmlns:sketch="http://www.bohemiancoding.com/sketch/ns">
    <!-- Generator: Sketch 3.2 (9964) - http://www.bohemiancoding.com/sketch -->
    <title>gear</title>
    <desc>Created with Sketch.</desc>
    <defs></defs>
    <g id="index" stroke="none" stroke-width="1" fill="none" fill-rule="evenodd" sketch:type="MSPage">
        <g id="Desktop" sketch:type="MSArtboardGroup" transform="translate(-646.000000, -1000.000000)" stroke="#74A8F3" stroke-width="5">
            <g id="section-1" sketch:type="MSLayerGroup" transform="translate(122.000000, 818.000000)">
                <path d="M577.470125,291.9629 L569.15235,300.77483 L569.15235,300.77483 C564.250546,299.435664 559.598978,297.490391 555.283195,295.024556 L555.639991,282.656346 C551.740363,279.714261 548.291132,276.206933 545.414112,272.256176 L532.876499,272.617864 C530.410659,268.302072 528.465386,263.650504 527.12622,258.7487 L536.437904,249.959196 C536.138405,247.760683 535.983694,245.516114 535.983694,243.23541 C535.983694,240.750476 536.167353,238.308439 536.521838,235.92213 L527.12622,227.0534 C528.465386,222.151596 530.410659,217.500028 532.876494,213.184244 L545.899187,213.559921 C548.680745,209.869404 551.96835,206.581798 555.658867,203.80024 L555.283185,190.777548 C559.598978,188.311709 564.250546,186.366435 569.15235,185.027269 L578.02108,194.422887 C580.407389,194.068403 582.849427,193.884744 585.33436,193.884744 C587.615064,193.884744 589.859634,194.039454 592.058146,194.338954 L600.84765,185.027269 C605.749454,186.366435 610.401022,188.311709 614.716805,190.777543 L614.355122,203.315159 C618.305879,206.192179 621.813207,209.641409 624.755293,213.541036 L637.123501,213.184235 C639.589341,217.500028 641.534614,222.151596 642.87378,227.0534 L634.06185,235.371174 C634.471956,237.93213 634.685027,240.558887 634.685027,243.23541 C634.685027,245.708926 634.503052,248.139939 634.151759,250.515792 L642.87378,258.7487 C641.534614,263.650504 639.589341,268.302072 637.123506,272.617855 L625.240846,272.275066 C622.206504,276.437728 618.536683,280.10755 614.37402,283.141893 L614.716815,295.024551 C610.401022,297.490391 605.749454,299.435664 600.84765,300.77483 L592.614742,292.052809 C590.238889,292.404101 587.807876,292.586077 585.33436,292.586077 C582.657838,292.586077 580.03108,292.373005 577.470125,291.9629 Z" id="gear" sketch:type="MSShapeGroup"></path>
            </g>
        </g>
    </g>
</svg>