<?xml version="1.0" encoding="utf-8"?>
<!-- Generator: Adobe Illustrator 19.1.0, SVG Export Plug-In . SVG Version: 6.00 Build 0)  -->
<svg version="1.1" id="Layer_1" xmlns="http://www.w3.org/2000/svg" xmlns:xlink="http://www.w3.org/1999/xlink" x="0px" y="0px"
	 viewBox="26 133.9 411.1 95.1" style="enable-background:new 26 133.9 411.1 95.1;" xml:space="preserve">
<style type="text/css">
	.st0{fill:#828282;}
	.st1{fill:#74A7F3;}
</style>
<g>
	
		<rect x="72.4" y="162" transform="matrix(-0.7071 -0.7071 0.7071 -0.7071 -3.4925 361.4682)" class="st0" width="1.5" height="39"/>
</g>
<g>
	
		<rect x="53.8" y="180.7" transform="matrix(-0.7071 -0.7071 0.7071 -0.7071 -3.1636 361.6046)" class="st0" width="39" height="1.5"/>
</g>
<g>
	<path class="st0" d="M73.1,216c-19,0-34.5-15.5-34.5-34.5s15.5-34.5,34.5-34.5s34.5,15.5,34.5,34.5S92.1,216,73.1,216z M73.1,148.4
		c-18.2,0-33.1,14.8-33.1,33.1s14.8,33.1,33.1,33.1s33.1-14.8,33.1-33.1S91.3,148.4,73.1,148.4z"/>
</g>
<g>
	<polygon class="st0" points="56.1,171.7 54.6,171.7 54.6,163 63.3,163 63.3,164.4 56.1,164.4 	"/>
</g>
<g>
	<polygon class="st0" points="91.7,171.7 90.2,171.7 90.2,164.4 83,164.4 83,163 91.7,163 	"/>
</g>
<g>
	<polygon class="st1" points="91.7,200 83,200 83,198.5 90.2,198.5 90.2,191.2 91.7,191.2 	"/>
</g>
<g>
	<polygon class="st0" points="63.3,200 54.6,200 54.6,191.2 56.1,191.2 56.1,198.5 63.3,198.5 	"/>
</g>
<g>
	<path class="st0" d="M145.3,195.9c-0.6,0-0.9-0.3-1-0.9l-3.6-14.1h-0.1l-3.6,14.1c-0.1,0.6-0.4,0.9-1,0.9h-2.4
		c-0.6,0-0.8-0.3-1-0.9l-5.5-17h-2.4c-0.3,0-0.5-0.2-0.5-0.5v-1.8c0-0.3,0.2-0.5,0.5-0.5h7.9c0.3,0,0.5,0.2,0.5,0.5v1.8
		c0,0.3-0.2,0.5-0.5,0.5h-1.9l4.2,14.2h0.1l3.7-14.2h-1.6c-0.3,0-0.5-0.2-0.5-0.5v-1.8c0-0.3,0.2-0.5,0.5-0.5h7.4
		c0.3,0,0.5,0.2,0.5,0.5v1.8c0,0.3-0.2,0.5-0.5,0.5h-1.6l3.7,14.2h0.1l4.2-14.2h-1.9c-0.3,0-0.5-0.2-0.5-0.5v-1.8
		c0-0.3,0.2-0.5,0.5-0.5h7.8c0.3,0,0.5,0.2,0.5,0.5v1.8c0,0.3-0.2,0.5-0.5,0.5h-2.3l-5.5,17c-0.2,0.6-0.4,0.9-1,0.9H145.3z"/>
	<path class="st0" d="M161.9,186c0.2,4.9,3.7,7.3,7,7.3c3.6,0,6.1-2.3,6.7-3.2c0.2-0.3,0.5-0.3,0.8-0.1l1.1,1.1
		c0.3,0.3,0.3,0.5,0.2,0.8c-0.5,0.9-3.4,4.4-8.9,4.4c-5.7,0-10.3-4-10.3-10.7c0-6.8,4.9-10.5,9.9-10.5c6,0,9.5,4,9.4,10.5
		c0,0.3-0.2,0.5-0.6,0.5L161.9,186L161.9,186z M174.1,183.5c-0.2-3.4-2.2-5.7-5.8-5.7c-2.9,0-5.8,1.7-6.3,5.7H174.1z"/>
	<path class="st0" d="M183.6,195.9c-0.3,0-0.5-0.2-0.5-0.5v-26.8h-2.4c-0.3,0-0.5-0.2-0.5-0.5v-1.8c0-0.3,0.2-0.5,0.5-0.5h5.2
		c0.3,0,0.5,0.2,0.5,0.5v11.2c0,0.2-0.1,1.6-0.1,1.6h0.1c0.8-2,3.1-4.1,6.8-4.1c5.7,0,9.4,4.3,9.4,10.5c0,6.6-3.9,10.8-9.5,10.8
		c-3.8,0-6-2.1-6.9-4.2h0v3.4c0,0.3-0.2,0.5-0.5,0.5L183.6,195.9L183.6,195.9z M199.3,185.5c0-4.7-2.9-7.6-6.5-7.6
		c-3.4,0-6.4,2.7-6.4,7.6c0,4.7,2.8,7.7,6.4,7.7C196.6,193.3,199.3,190.2,199.3,185.5z"/>
	<path class="st0" d="M206.5,197.1c-0.3,0-0.6-0.2-0.6-0.5v-2.1c0-0.3,0.3-0.5,0.6-0.5h18.9c0.3,0,0.5,0.2,0.5,0.5v2.1
		c0,0.3-0.2,0.5-0.5,0.5H206.5z"/>
	<path class="st0" d="M247.6,195.9c-1.3,0-1.8-0.5-1.8-1.8v-2.4h0c-0.8,2.1-3.2,4.4-7,4.4c-5.6,0-9.5-4.2-9.5-10.8
		c0-6.2,3.8-10.5,9.5-10.5c3.7,0,5.9,2.1,6.8,4.1h0c0,0,0-0.8,0-1.4v-9.1h-2.4c-0.3,0-0.5-0.2-0.5-0.5v-1.8c0-0.3,0.2-0.5,0.5-0.5
		h5.2c0.3,0,0.5,0.2,0.5,0.5v26.8h2.4c0.3,0,0.5,0.2,0.5,0.5v1.8c0,0.3-0.2,0.5-0.5,0.5L247.6,195.9L247.6,195.9z M245.6,185.6
		c0-4.9-2.9-7.6-6.4-7.6c-3.6,0-6.5,2.9-6.5,7.6c0,4.7,2.7,7.8,6.5,7.8C242.8,193.3,245.6,190.3,245.6,185.6z"/>
	<path class="st0" d="M255.5,195.9c-0.3,0-0.5-0.2-0.5-0.5v-1.8c0-0.3,0.2-0.5,0.5-0.5h2.3v-15h-2.3c-0.3,0-0.5-0.2-0.5-0.5v-1.8
		c0-0.3,0.2-0.5,0.5-0.5h5.3c0.3,0,0.5,0.2,0.5,0.5v17.3h2.2c0.3,0,0.5,0.2,0.5,0.5v1.8c0,0.3-0.2,0.5-0.5,0.5H255.5z M259.5,173
		c-1.3,0-2.4-1-2.4-2.3c0-1.3,1.1-2.4,2.4-2.4c1.3,0,2.4,1.1,2.4,2.4C261.8,172,260.8,173,259.5,173z"/>
	<path class="st0" d="M267.8,195.9c-0.3,0-0.5-0.2-0.5-0.5v-1.8c0-0.3,0.2-0.5,0.5-0.5h2.3v-15h-2.3c-0.3,0-0.5-0.2-0.5-0.5v-1.8
		c0-0.3,0.2-0.5,0.5-0.5h4.9c0.3,0,0.5,0.2,0.5,0.5v5.3h0.1c0,0,1.4-5.8,9-5.8c0.3,0,0.5,0.2,0.5,0.5v2.2c0,0.3-0.2,0.5-0.5,0.5
		h-0.9c-5.1,0-7.9,3.9-7.9,7.6v7.1h2.2c0.3,0,0.5,0.2,0.5,0.5v1.8c0,0.3-0.2,0.5-0.5,0.5L267.8,195.9L267.8,195.9z"/>
	<path class="st0" d="M287.8,186c0.2,4.9,3.7,7.3,7,7.3c3.6,0,6.1-2.3,6.7-3.2c0.2-0.3,0.5-0.3,0.8-0.1l1.1,1.1
		c0.3,0.3,0.3,0.5,0.2,0.8c-0.5,0.9-3.4,4.4-8.9,4.4c-5.7,0-10.3-4-10.3-10.7c0-6.8,4.9-10.5,9.9-10.5c6,0,9.5,4,9.4,10.5
		c0,0.3-0.2,0.5-0.6,0.5L287.8,186L287.8,186z M300,183.5c-0.2-3.4-2.2-5.7-5.8-5.7c-2.9,0-5.8,1.7-6.3,5.7H300z"/>
	<path class="st0" d="M326,191.1c0.3,0.3,0.3,0.5,0.1,0.8c-0.5,0.9-3.4,4.4-8.9,4.4c-5.7,0-10.3-4-10.3-10.7c0-6.8,4.9-10.5,10-10.5
		c3.8,0,5.8,1.8,6.7,3.1h0l0-2.3c0-0.3,0.2-0.5,0.5-0.5h1.6c0.3,0,0.5,0.2,0.5,0.5v7.1c0,0.3-0.2,0.5-0.5,0.5h-1.9
		c-0.3,0-0.5-0.2-0.5-0.5v-0.7c0-1.8-2.3-4.3-6-4.3c-3.1,0-6.9,2.6-6.9,7.6c0,5,3.5,7.7,7,7.7c3.6,0,6.1-2.3,6.7-3.3
		c0.2-0.3,0.5-0.3,0.7-0.1L326,191.1z"/>
	<path class="st0" d="M343.5,193.8c0.3,0.3,0.2,0.5-0.1,0.8c-0.4,0.3-1.8,1.6-4.2,1.6c-4.2,0-6.8-2.4-6.8-7.1v-11h-2.4
		c-0.3,0-0.6-0.2-0.6-0.5v-1.7c0-0.3,0.3-0.5,0.6-0.5h2.4V171c0-0.3,0.3-0.6,0.6-0.6h2.4c0.3,0,0.5,0.3,0.5,0.6v4.2h5.3
		c0.3,0,0.6,0.2,0.6,0.5v1.7c0,0.3-0.3,0.5-0.6,0.5h-5.3V189c0,2.8,1.3,4.2,3.6,4.2c1.3,0,2.1-0.6,2.2-0.8c0.3-0.3,0.5-0.2,0.8,0
		L343.5,193.8z"/>
	<path class="st0" d="M346.5,195.9c-0.3,0-0.5-0.2-0.5-0.5v-1.8c0-0.3,0.2-0.5,0.5-0.5h2.3v-15h-2.3c-0.3,0-0.5-0.2-0.5-0.5v-1.8
		c0-0.3,0.2-0.5,0.5-0.5h5.3c0.3,0,0.5,0.2,0.5,0.5v17.3h2.2c0.3,0,0.5,0.2,0.5,0.5v1.8c0,0.3-0.2,0.5-0.5,0.5H346.5z M350.5,173
		c-1.3,0-2.4-1-2.4-2.3c0-1.3,1.1-2.4,2.4-2.4c1.3,0,2.4,1.1,2.4,2.4C352.9,172,351.8,173,350.5,173z"/>
	<path class="st0" d="M357.8,185.5c0-6.6,4.7-10.5,10.5-10.5c5.8,0,10.4,4,10.4,10.5c0,6.6-4.5,10.7-10.5,10.7
		C362.3,196.2,357.8,192.1,357.8,185.5z M375.2,185.6c0-4.8-3.3-7.6-6.9-7.6c-3.7,0-7,2.9-7,7.6c0,4.7,3.2,7.7,6.9,7.7
		C372,193.3,375.2,190.3,375.2,185.6z"/>
	<path class="st0" d="M400.2,195.9c-1.2,0-1.8-0.5-1.8-1.8v-11c0-3.1-1.5-5.1-4.6-5.1c-4.2,0-5.5,3.5-5.6,3.6v11.6h2.2
		c0.3,0,0.5,0.2,0.5,0.5v1.8c0,0.3-0.2,0.5-0.5,0.5h-8c-0.3,0-0.5-0.2-0.5-0.5v-1.8c0-0.3,0.2-0.5,0.5-0.5h2.3v-15h-2.3
		c-0.3,0-0.5-0.2-0.5-0.5v-1.8c0-0.3,0.2-0.5,0.5-0.5h4.9c0.3,0,0.5,0.2,0.5,0.5l-0.1,2.9h0.1c0.5-0.8,2.2-3.7,6.8-3.7
		c4.5,0,7.1,2.9,7.2,7.3v10.8h2.4c0.3,0,0.5,0.2,0.5,0.5v1.8c0,0.3-0.2,0.5-0.5,0.5L400.2,195.9L400.2,195.9z"/>
	<path class="st0" d="M409.9,193.2L409.9,193.2c-0.1,0,0,2.1,0,2.2c0,0.3-0.3,0.5-0.6,0.5h-1.4c-0.3,0-0.5-0.2-0.5-0.5v-6.3
		c0-0.3,0.2-0.5,0.5-0.5h1.6c0.3,0,0.6,0.2,0.6,0.5v0.8c0,0,1.2,3.6,5.9,3.6c3,0,4.5-1.2,4.5-3.3c0-4.2-12.6-2-12.6-9.3
		c0-3.7,3-6,7-6c3.2,0,5,1.1,6,2.4h0.1c0,0-0.1-1.5-0.1-1.6c0-0.3,0.2-0.5,0.5-0.5h1.3c0.3,0,0.5,0.2,0.5,0.5v5.8
		c0,0.3-0.2,0.5-0.5,0.5h-1.6c-0.3,0-0.6-0.2-0.6-0.5v-0.6c0-1.2-1.4-3.4-5.2-3.4c-2.1,0-4,1.1-4,3.3c0,4.7,12.9,2.2,12.9,9.3
		c0,3.1-2.1,5.9-7.7,5.9C412.1,196.2,410.2,193.9,409.9,193.2z"/>
</g>
</svg>
